<svg xmlns="http://www.w3.org/2000/svg" version="1.1" xmlns:xlink="http://www.w3.org/1999/xlink" width="25" height="25"
    x="0" y="0" viewBox="0 0 24 24" style="enable-background:new 0 0 512 512" xml:space="preserve" class="">
    <g>
        <path d="M12 0a12 12 0 1 0 12 12A12.013 12.013 0 0 0 12 0zm0 22a10 10 0 1 1 10-10 10.011 10.011 0 0 1-10 10z"
            fill="#000000" opacity="1" data-original="#000000" class=""></path>
        <path d="M12 9a1 1 0 0 0-1 1v8a1 1 0 0 0 2 0v-8a1 1 0 0 0-1-1z" fill="#000000" opacity="1"
            data-original="#000000" class=""></path>
        <circle cx="12" cy="6" r="1" fill="#000000" opacity="1" data-original="#000000" class=""></circle>
    </g>
</svg>