<svg xmlns="http://www.w3.org/2000/svg" version="1.1" xmlns:xlink="http://www.w3.org/1999/xlink" width="25" height="25"
    x="0" y="0" viewBox="0 0 682.667 682.667" style="enable-background:new 0 0 512 512" xml:space="preserve" class="">
    <g>
        <defs>
            <clipPath id="a" clipPathUnits="userSpaceOnUse">
                <path d="M0 512h512V0H0Z" fill="#000000" opacity="1" data-original="#000000"></path>
            </clipPath>
        </defs>
        <g clip-path="url(#a)" transform="matrix(1.33333 0 0 -1.33333 0 682.667)">
            <path
                d="M0 0c0-49.569-39.33-89.753-87.848-89.753-48.516 0-87.847 40.184-87.847 89.753 0 49.57 39.331 89.754 87.847 89.754C-39.33 89.754 0 49.57 0 0Z"
                style="stroke-width:30;stroke-linecap:butt;stroke-linejoin:miter;stroke-miterlimit:10;stroke-dasharray:none;stroke-opacity:1"
                transform="translate(257.86 336.496)" fill="none" stroke="#000000" stroke-width="30"
                stroke-linecap="butt" stroke-linejoin="miter" stroke-miterlimit="10" stroke-dasharray="none"
                stroke-opacity="" data-original="#000000" class=""></path>
            <path
                d="M0 0c-14.967 0-26.5 13.786-23.828 28.833 13.294 74.877 77.435 131.66 154.557 131.66 77.122 0 141.262-56.783 154.557-131.66C287.957 13.786 276.425 0 261.457 0Z"
                style="stroke-width:30;stroke-linecap:butt;stroke-linejoin:miter;stroke-miterlimit:10;stroke-dasharray:none;stroke-opacity:1"
                transform="translate(39.284 86.25)" fill="none" stroke="#000000" stroke-width="30" stroke-linecap="butt"
                stroke-linejoin="miter" stroke-miterlimit="10" stroke-dasharray="none" stroke-opacity=""
                data-original="#000000" class=""></path>
            <path
                d="M0 0c0-38.372-30.445-69.479-68.003-69.479-37.557 0-68.003 31.107-68.003 69.479 0 38.371 30.446 69.478 68.003 69.478C-30.445 69.478 0 38.371 0 0Z"
                style="stroke-width:30;stroke-linecap:butt;stroke-linejoin:miter;stroke-miterlimit:10;stroke-dasharray:none;stroke-opacity:1"
                transform="translate(445.13 348.975)" fill="none" stroke="#000000" stroke-width="30"
                stroke-linecap="butt" stroke-linejoin="miter" stroke-miterlimit="10" stroke-dasharray="none"
                stroke-opacity="" data-original="#000000" class=""></path>
            <path
                d="M0 0c20.04 40.488 61.138 68.248 108.58 68.248 59.7 0 109.352-43.955 119.643-101.918 2.068-11.647-6.86-22.319-18.446-22.319H43.327"
                style="stroke-width:30;stroke-linecap:butt;stroke-linejoin:miter;stroke-miterlimit:10;stroke-dasharray:none;stroke-opacity:1"
                transform="translate(268.548 211.248)" fill="none" stroke="#000000" stroke-width="30"
                stroke-linecap="butt" stroke-linejoin="miter" stroke-miterlimit="10" stroke-dasharray="none"
                stroke-opacity="" data-original="#000000" class=""></path>
        </g>
    </g>
</svg>