<svg xmlns="http://www.w3.org/2000/svg" version="1.1" xmlns:xlink="http://www.w3.org/1999/xlink" width="25" height="25"
    x="0" y="0" viewBox="0 0 24 24" style="enable-background:new 0 0 512 512" xml:space="preserve" class="">
    <g>
        <path
            d="M3 24h14a3 3 0 0 0 3-3v-7.52a1 1 0 0 0-2 0V21a1 1 0 0 1-1 1H3a1 1 0 0 1-1-1V6a1 1 0 0 1 1-1h8.52a1 1 0 0 0 0-2H3a3 3 0 0 0-3 3v15a3 3 0 0 0 3 3z"
            fill="#fff" opacity="1" data-original="#000000" class=""></path>
        <path
            d="M21.076.011a2.567 2.567 0 0 0-2.049.721L10.1 9.655a.993.993 0 0 0-.286.589l-.381 3.209a1 1 0 0 0 .993 1.118.945.945 0 0 0 .118-.007l3.209-.381a.993.993 0 0 0 .589-.286l8.923-8.922a2.579 2.579 0 0 0 .721-2.05A3.18 3.18 0 0 0 23.051.95a3.18 3.18 0 0 0-1.975-.939zm.779 3.549-8.678 8.678-1.605.19.191-1.6 8.679-8.678c.325-.329.923-.058 1.194.21s.55.869.219 1.2z"
            fill="#fff" opacity="1" data-original="#000000" class=""></path>
    </g>
</svg>