<svg xmlns="http://www.w3.org/2000/svg" version="1.1" xmlns:xlink="http://www.w3.org/1999/xlink" width="20" height="20"
    x="0" y="0" viewBox="0 0 32 32" style="enable-background:new 0 0 512 512" xml:space="preserve" class="">
    <g>
        <path
            d="M2.439 19.912A1.94 1.94 0 0 0 .5 21.849a1.94 1.94 0 0 0 1.938 1.938h2.837L3.95 29.092a1.923 1.923 0 0 0 .218 1.467 1.939 1.939 0 0 0 1.662.941c.89 0 1.662-.604 1.878-1.468l1.561-6.245h9.569l-1.327 5.305a1.923 1.923 0 0 0 .218 1.467 1.938 1.938 0 0 0 1.662.941c.89 0 1.663-.604 1.878-1.468l1.562-6.245h6.73a1.94 1.94 0 0 0 1.938-1.938 1.94 1.94 0 0 0-1.938-1.937H23.8l1.955-7.822h3.806c1.069 0 1.938-.87 1.938-1.938s-.87-1.937-1.938-1.937h-2.837L28.05 2.91a1.923 1.923 0 0 0-.218-1.467 1.922 1.922 0 0 0-1.19-.883 1.915 1.915 0 0 0-1.465.214c-.445.266-.76.691-.885 1.196L22.73 8.215h-9.569L14.49 2.91a1.923 1.923 0 0 0-.218-1.467A1.922 1.922 0 0 0 13.08.56a1.927 1.927 0 0 0-2.35 1.41L9.169 8.215H2.44C1.37 8.215.5 9.084.5 10.152s.87 1.938 1.938 1.938H8.2l-1.955 7.822zm9.755-7.822h9.568l-1.956 7.822h-9.568z"
            fill="#000000" opacity="1" data-original="#000000" class=""></path>
    </g>
</svg>