<svg xmlns="http://www.w3.org/2000/svg" version="1.1" xmlns:xlink="http://www.w3.org/1999/xlink" width="25" height="25"
    x="0" y="0" viewBox="0 0 512.005 512.005" style="enable-background:new 0 0 512 512" xml:space="preserve" class="">
    <g>
        <path
            d="M511.658 51.675c2.496-11.619-8.895-21.416-20.007-17.176l-482 184a15 15 0 0 0-.054 28.006L145 298.8v164.713a15 15 0 0 0 28.396 6.75l56.001-111.128 136.664 101.423c8.313 6.17 20.262 2.246 23.287-7.669C516.947 34.532 511.431 52.726 511.658 51.675zm-118.981 52.718L157.874 271.612 56.846 232.594zM175 296.245l204.668-145.757c-176.114 185.79-166.916 176.011-167.684 177.045-1.141 1.535 1.985-4.448-36.984 72.882zm191.858 127.546-120.296-89.276 217.511-229.462z"
            fill="#000000" opacity="1" data-original="#000000"></path>
    </g>
</svg>