<svg xmlns="http://www.w3.org/2000/svg" version="1.1" xmlns:xlink="http://www.w3.org/1999/xlink" width="30" height="30"
    x="0" y="0" viewBox="0 0 6.35 6.35" style="enable-background:new 0 0 512 512" xml:space="preserve"
    class="group-hover:scale-110 duration-200">
    <g>
        <path fill-rule="evenodd"
            d="M3.181.264A2.92 2.92 0 0 0 .264 3.18a2.922 2.922 0 0 0 2.917 2.917 2.92 2.92 0 0 0 2.915-2.917A2.919 2.919 0 0 0 3.18.264zm0 .53A2.38 2.38 0 0 1 5.566 3.18 2.382 2.382 0 0 1 3.18 5.566 2.384 2.384 0 0 1 .794 3.179 2.383 2.383 0 0 1 3.181.794zm-.004 1.057a.265.265 0 0 0-.263.27v.794h-.793a.265.265 0 0 0-.028 0 .266.266 0 0 0 .028.53h.793v.794a.265.265 0 0 0 .531 0v-.793h.794a.265.265 0 0 0 0-.531h-.794v-.794a.265.265 0 0 0-.268-.27z"
            paint-order="stroke fill markers" fill="#000000" opacity="1" data-original="#000000" class=""></path>
    </g>
</svg>