<svg xmlns="http://www.w3.org/2000/svg" version="1.1" xmlns:xlink="http://www.w3.org/1999/xlink" width="25" height="25"
    x="0" y="0" viewBox="0 0 512 512" style="enable-background:new 0 0 512 512" xml:space="preserve" class="">
    <g>
        <g fill-rule="evenodd">
            <path fill="#ffffff"
                d="M355.8 7.976H156.206A77.1 77.1 0 0 0 79.236 85v406.019a13.029 13.029 0 0 0 22.193 9.2L256.007 345.6l154.564 154.624a13.019 13.019 0 0 0 9.2 3.8 11.85 11.85 0 0 0 4.8-.964l.1-.043.1-.04a12.889 12.889 0 0 0 7.991-11.958V85A77.1 77.1 0 0 0 355.8 7.976z"
                opacity="1" data-original="#ffcd00" class=""></path>
            <path
                d="M398.769 440.293 270.846 312.406a21.008 21.008 0 0 0-29.692 0L113.238 440.293V85a43.035 43.035 0 0 1 42.968-43.01H355.8A43.041 43.041 0 0 1 398.769 85v355.3zM355.8-.024H156.206A85.1 85.1 0 0 0 71.236 85v406.019a21.03 21.03 0 0 0 35.851 14.86l148.92-148.963 148.906 148.963a21.082 21.082 0 0 0 14.861 6.145 19.814 19.814 0 0 0 8.03-1.644 20.889 20.889 0 0 0 12.96-19.361V85A85.1 85.1 0 0 0 355.8-.024z"
                fill="#000000" opacity="1" data-original="#000000" class=""></path>
        </g>
    </g>
</svg>