<svg xmlns="http://www.w3.org/2000/svg" version="1.1" xmlns:xlink="http://www.w3.org/1999/xlink" width="25" height="25"
    x="0" y="0" viewBox="0 0 682.667 682.667" style="enable-background:new 0 0 512 512" xml:space="preserve" class="">
    <g>
        <defs>
            <clipPath id="b" clipPathUnits="userSpaceOnUse">
                <path d="M0 512h512V0H0Z" fill="#000000" opacity="1" data-original="#000000"></path>
            </clipPath>
        </defs>
        <mask id="a">
            <rect width="100%" height="100%" fill="#ffffff" opacity="1" data-original="#ffffff">
            </rect>
            <path d="M0 0c0-13.807-11.193-25-25-25S-50-13.807-50 0s11.193 25 25 25S0 13.807 0 0"
                style="fill-opacity:1;fill-rule:nonzero;stroke:none"
                transform="matrix(1.33333 0 0 -1.33333 374.667 341.333)" fill="#ffffff" data-original="#ffffff"></path>
            <path d="M0 0c0-13.807-11.193-25-25-25S-50-13.807-50 0s11.193 25 25 25S0 13.807 0 0"
                style="fill-opacity:1;fill-rule:nonzero;stroke:none"
                transform="matrix(1.33333 0 0 -1.33333 508 341.333)" fill="#ffffff" data-original="#ffffff"></path>
            <path d="M0 0c0-13.807-11.193-25-25-25S-50-13.807-50 0s11.193 25 25 25S0 13.807 0 0"
                style="fill-opacity:1;fill-rule:nonzero;stroke:none"
                transform="matrix(1.33333 0 0 -1.33333 241.333 341.333)" fill="#ffffff" data-original="#ffffff"></path>
        </mask>
        <g mask="url(#a)">
            <g clip-path="url(#b)" transform="matrix(1.33333 0 0 -1.33333 0 682.667)">
                <path
                    d="M0 0c-130.339 0-236-105.661-236-236 0-45.885 13.109-88.702 35.766-124.937L-236-472l111.063 35.766C-88.702-458.891-45.885-472 0-472c130.339 0 236 105.661 236 236S130.339 0 0 0Z"
                    style="stroke-width:40;stroke-linecap:round;stroke-linejoin:round;stroke-miterlimit:10;stroke-dasharray:none;stroke-opacity:1"
                    transform="translate(256 492)" fill="none" stroke="#000000" stroke-width="40" stroke-linecap="round"
                    stroke-linejoin="round" stroke-miterlimit="10" stroke-dasharray="none" stroke-opacity=""
                    data-original="#000000" class="">
                </path>
                <path d="M0 0c0-13.807-11.193-25-25-25S-50-13.807-50 0s11.193 25 25 25S0 13.807 0 0"
                    style="fill-opacity:1;fill-rule:nonzero;stroke:none" transform="translate(281 256)" fill="#000000"
                    data-original="#000000"></path>
                <path d="M0 0c0-13.807-11.193-25-25-25S-50-13.807-50 0s11.193 25 25 25S0 13.807 0 0"
                    style="fill-opacity:1;fill-rule:nonzero;stroke:none" transform="translate(381 256)" fill="#000000"
                    data-original="#000000"></path>
                <path d="M0 0c0-13.807-11.193-25-25-25S-50-13.807-50 0s11.193 25 25 25S0 13.807 0 0"
                    style="fill-opacity:1;fill-rule:nonzero;stroke:none" transform="translate(181 256)" fill="#000000"
                    data-original="#000000"></path>
            </g>
        </g>
    </g>
</svg>