<svg xmlns="http://www.w3.org/2000/svg" version="1.1" xmlns:xlink="http://www.w3.org/1999/xlink" width="20" height="20"
    x="0" y="0" viewBox="0 0 427.733 427.733" style="enable-background:new 0 0 512 512" xml:space="preserve" class="">
    <g>
        <path
            d="M100.802 100.8c61.867-61.867 164.267-61.867 226.133 0l-49.067 49.067h128v-128L365.335 62.4c-83.2-83.2-219.733-83.2-302.933 0C15.469 109.333-3.731 173.333 2.669 235.2h53.333c-6.4-46.933 8.533-98.133 44.8-134.4zM425.069 192.533h-53.333c6.4 46.933-8.533 98.133-44.8 134.4-61.867 61.867-164.267 61.867-226.133 0l49.067-49.067h-128v128l40.533-40.533c83.2 83.2 217.6 83.2 300.8 0 49.066-46.933 68.266-110.933 61.866-172.8z"
            fill="#000000" opacity="1" data-original="#000000" class=""></path>
    </g>
</svg>