<svg xmlns="http://www.w3.org/2000/svg" version="1.1" xmlns:xlink="http://www.w3.org/1999/xlink" width="25" height="25"
    x="0" y="0" viewBox="0 0 32 32" style="enable-background:new 0 0 512 512" xml:space="preserve" class="">
    <g>
        <circle cx="16" cy="16" r="13" fill="#cfcfcf" opacity="1" data-original="#87d1ee" class=""></circle>
        <g fill="#3a4d5c">
            <path d="M16 30a14 14 0 1 1 14-14 14 14 0 0 1-14 14zm0-26a12 12 0 1 0 12 12A12 12 0 0 0 16 4z"
                fill="#3a4d5c" opacity="1" data-original="#3a4d5c" class=""></path>
            <path
                d="M16 22a1 1 0 0 1-.71-.29l-7-7a1 1 0 0 1 1.42-1.42l6.29 6.3 6.29-6.3a1 1 0 0 1 1.42 1.42l-7 7A1 1 0 0 1 16 22z"
                fill="#3a4d5c" opacity="1" data-original="#3a4d5c" class=""></path>
        </g>
    </g>
</svg>