<svg width="277.2067250907511" height="314.3073059082031" viewBox="0 0 312.5 354.3241350445527" class="looka-1j8o68f">
    <defs id="SvgjsDefs4809"></defs>
    <g id="SvgjsG4810" featurekey="rootContainer"
        transform="matrix(6.3004014813942035,0,0,6.3004014813942035,0.000046358657472104394,0.02629501308574099)"
        fill="#16356d">
        <path xmlns="http://www.w3.org/2000/svg"
            d="M23.11 55.78L1.69 43.41A3.39 3.39 0 0 1 0 40.48V15.75a3.39 3.39 0 0 1 1.69-2.94L23.11.45a3.39 3.39 0 0 1 3.39 0l21.41 12.37a3.39 3.39 0 0 1 1.69 2.94v24.72a3.39 3.39 0 0 1-1.69 2.94L26.5 55.78a3.39 3.39 0 0 1-3.39 0z">
        </path>
    </g>
    <g id="SvgjsG4811" featurekey="symbolFeature-0" transform="matrix(1,0,0,1,106,77)" fill="#3bbefb">
        <polygon xmlns="http://www.w3.org/2000/svg"
            points="50,21.716 61.712,10 66.429,14.717 54.714,26.429 68.857,40.573 64.144,45.286 33.567,14.714 38.284,10 ">
        </polygon>
        <polygon xmlns="http://www.w3.org/2000/svg"
            points="78.284,50 90,61.712 85.283,66.429 73.567,54.714 59.427,68.857 54.714,64.144 85.286,33.571 90,38.284 ">
        </polygon>
        <polygon xmlns="http://www.w3.org/2000/svg"
            points="50.003,78.284 38.291,90 33.574,85.283 45.29,73.567 31.146,59.427 35.859,54.714 66.433,85.286 61.719,90 ">
        </polygon>
        <polygon xmlns="http://www.w3.org/2000/svg"
            points="21.716,50 10,38.284 14.717,33.567 26.433,45.286 40.573,31.14 45.286,35.853 14.714,66.429 10,61.716 ">
        </polygon>
    </g>
    <g id="SvgjsG4812" featurekey="nameFeature-0"
        transform="matrix(1.3145786828076451,0,0,1.3145786828076451,54.42250583136681,193.22505580630826)"
        fill="#b1f268">
        <path
            d="M7.16 40 l-5.96 -5.96 l0 -16.08 l5.96 -5.96 l14.44 0 l0 6.4 l-11.56 0 l-2.44 2.44 l0 10.32 l2.44 2.44 l11.56 0 l0 6.4 l-14.44 0 z M30.06 40 l-4.8 -6.12 l0 -15.76 l4.8 -6.12 l14.8 0 l4.8 6.12 l0 15.76 l-4.8 6.12 l-14.8 0 z M33.58 33.6 l7.76 0 l1.92 -2.28 l0 -10.64 l-1.92 -2.28 l-7.76 0 l-1.92 2.28 l0 10.64 z M69.56 12 l6.36 0 l-0.04 28 l-6.4 0 l0.04 -11.2 l-8.96 -10.8 l-0.64 0 l0 22 l-6.4 0 l0 -28 l10.16 0 l5.84 7.12 z M85.74 40 l-5.96 -5.96 l0 -16.08 l5.96 -5.96 l14.44 0 l0 6.4 l-11.56 0 l-2.44 2.44 l0 10.32 l2.44 2.44 l11.56 0 l0 6.4 l-14.44 0 z M122.24000000000001 40 l-1.64 -6.4 l-9.48 0 l-1.68 6.4 l-6.4 0 l7.28 -28 l11.12 0 l7.2 28 l-6.4 0 z M112.8 27.2 l6.2 0 l-2.56 -10 l-1.04 0 z M153.34 12 l0 5.2 l-8.08 0 l0 22.8 l-6.4 0 l0 -22.8 l-8.16 0 l0 -5.2 l22.64 0 z">
        </path>
    </g>
</svg>