<svg xmlns="http://www.w3.org/2000/svg" version="1.1" xmlns:xlink="http://www.w3.org/1999/xlink" width="60" height="60"
    x="0" y="0" viewBox="0 0 512.002 512.002" style="enable-background:new 0 0 512 512" xml:space="preserve" class="">
    <g>
        <circle cx="255.98" cy="256" r="248.5" style="" fill="#ffe17d" data-original="#ffe17d" class=""></circle>
        <path
            d="M292.054 468.428c-137.243 0-248.5-111.258-248.5-248.5 0-59.433 20.891-113.971 55.695-156.733C43.265 108.76 7.481 178.191 7.481 256c0 137.242 111.257 248.5 248.5 248.5 77.81 0 147.242-35.784 192.806-91.769-42.761 34.805-97.3 55.697-156.733 55.697z"
            style="" fill="#ffd164" data-original="#ffd164"></path>
        <path
            d="M183.836 504.5c8.818 0 16.032-7.215 16.032-16.032 0-8.818-7.215-16.032-16.032-16.032h8.016c8.818 0 16.032-7.215 16.032-16.032 0-8.818-7.215-16.032-16.032-16.032h8.016c8.818 0 16.032-7.215 16.032-16.032 0-8.818-7.215-16.032-16.032-16.032h88.177c8.854 0 16.032-7.178 16.032-16.032s-7.178-16.032-16.032-16.032h-144.29c-13.282 0-24.048-10.767-24.048-24.048v-48.097c0-8.854-7.178-16.032-16.032-16.032s-16.032 7.178-16.032 16.032v39.241a48.1 48.1 0 0 1-10.539 30.046l-7.472 9.34a64.127 64.127 0 0 0-14.053 40.061v33.618c0 26.563 21.534 48.097 48.097 48.097h80.16v-.002z"
            style="" fill="#ffd164" data-original="#ffd164"></path>
        <path
            d="M155.033 209.424c-10.985-1.354-18.792-11.357-17.437-22.342l1.962-15.912c1.354-10.985 11.357-18.792 22.342-17.437 10.985 1.354 18.792 11.357 17.437 22.342l-1.962 15.912c-1.354 10.984-11.357 18.791-22.342 17.437z"
            style="" fill="#7d5046" data-original="#7d5046"></path>
        <path
            d="M173.534 201.391c1.988-2.686 3.403-5.85 3.842-9.404l1.961-15.912c1.354-10.984-6.452-20.988-17.437-22.342a20.076 20.076 0 0 0-4.004-.089l-1.532 12.24c-1.589 12.884 5.126 30.749 17.17 35.507z"
            style="" fill="#9c6846" data-original="#9c6846"></path>
        <path
            d="M323.038 227.46c-10.985-1.354-18.792-11.357-17.437-22.342l1.962-15.912c1.354-10.985 11.357-18.792 22.342-17.437 10.985 1.354 18.792 11.357 17.437 22.342l-1.962 15.912c-1.354 10.985-11.357 18.792-22.342 17.437z"
            style="" fill="#7d5046" data-original="#7d5046"></path>
        <path
            d="M341.539 219.427c1.988-2.686 3.403-5.85 3.842-9.404l1.961-15.912c1.354-10.985-6.452-20.988-17.437-22.342a20.076 20.076 0 0 0-4.004-.089l-1.532 12.24c-1.59 12.884 5.126 30.75 17.17 35.507z"
            style="" fill="#9c6846" data-original="#9c6846"></path>
        <path
            d="M103.675 504.5h80.161c8.818 0 16.032-7.215 16.032-16.032 0-2.93-.853-5.646-2.241-8.016h-93.953c-13.26 0-24.048-10.788-24.048-24.048v-33.618c0-9.067 3.12-17.958 8.783-25.037l7.473-9.341c10.194-12.744 16.307-28.75 16.307-45.069v-53.05c-2.366-1.377-5.579-2.224-8.515-2.224-8.854 0-16.032 7.178-16.032 16.032v39.242a48.097 48.097 0 0 1-10.539 30.046l-7.473 9.34a64.13 64.13 0 0 0-14.053 40.061v33.618c.001 26.563 21.535 48.096 48.098 48.096z"
            style="" fill="#ffc350" data-original="#ffc350"></path>
        <path
            d="M17.262 222.755c7.229-52.304 30.842-99.743 68.287-137.188 43.603-43.603 101.543-68.626 163.146-70.459 61.338-1.83 120.401 19.43 166.328 59.852a7.498 7.498 0 0 0 10.585-.675 7.499 7.499 0 0 0-.675-10.585C376.142 20.757 313.397-1.815 248.248.114c-65.44 1.948-126.989 28.529-173.306 74.847-39.775 39.775-64.859 90.171-72.539 145.741-7.429 53.754 2.627 109.512 28.317 157.002a7.498 7.498 0 0 0 10.166 3.028 7.5 7.5 0 0 0 3.028-10.165c-24.182-44.703-33.648-97.197-26.652-147.812z"
            fill="#000000" opacity="1" data-original="#000000" class=""></path>
        <path
            d="M448.282 87.05a7.5 7.5 0 0 0-11.26 9.91c40.421 45.926 61.677 104.995 59.852 166.328-1.833 61.603-26.856 119.543-70.459 163.146-29.439 29.438-66.077 50.824-105.953 61.844-36.855 10.185-75.934 11.444-113.393 3.713a23.67 23.67 0 0 0 .265-3.524c0-4.369-1.196-8.463-3.279-11.973 6.77-4.137 11.296-11.598 11.296-20.095 0-4.369-1.196-8.463-3.279-11.973 6.769-4.138 11.295-11.598 11.295-20.095 0-3.009-.567-5.887-1.601-8.534h66.255c12.977 0 23.534-10.558 23.534-23.534s-10.558-23.534-23.534-23.534H143.714c-9.126 0-16.551-7.425-16.551-16.551v-48.102c0-12.977-10.558-23.534-23.534-23.534S80.095 291.1 80.095 304.076v39.246c0 9.184-3.16 18.192-8.897 25.364l-7.473 9.341c-10.123 12.653-15.698 28.546-15.698 44.751v33.621c0 30.659 24.943 55.603 55.602 55.603H183.8c6.152 0 11.757-2.375 15.955-6.253a257.129 257.129 0 0 0 56.276 6.238c23.071 0 46.135-3.089 68.427-9.25 42.371-11.709 81.295-34.426 112.564-65.695 46.318-46.317 72.899-107.866 74.847-173.306 1.937-65.149-20.644-127.896-63.587-176.686zM183.799 497h-80.171c-22.388 0-40.602-18.214-40.602-40.603v-33.621a56.843 56.843 0 0 1 12.411-35.381l7.473-9.341c7.857-9.822 12.185-22.157 12.185-34.734v-39.246c0-4.706 3.829-8.534 8.534-8.534s8.534 3.829 8.534 8.534v48.102c0 17.397 14.154 31.551 31.551 31.551h144.307c4.706 0 8.534 3.829 8.534 8.534s-3.829 8.534-8.534 8.534h-88.188a7.5 7.5 0 0 0 0 15c4.706 0 8.534 3.829 8.534 8.534s-3.828 8.534-8.534 8.534h-8.017a7.5 7.5 0 0 0 0 15c4.706 0 8.534 3.828 8.534 8.534s-3.829 8.534-8.534 8.534h-8.017a7.5 7.5 0 0 0 0 15c4.706 0 8.534 3.829 8.534 8.534S188.505 497 183.799 497zM154.575 217.496c.92.091 1.838.136 2.751.136 6.348 0 12.45-2.174 17.422-6.254 5.687-4.667 9.216-11.27 9.938-18.591l1.179-11.968a7.5 7.5 0 0 0-6.729-8.199c-4.12-.397-7.793 2.606-8.199 6.729l-1.179 11.968a12.467 12.467 0 0 1-4.525 8.466 12.458 12.458 0 0 1-9.187 2.786c-6.882-.678-11.93-6.83-11.252-13.712l1.572-15.957c.678-6.883 6.839-11.935 13.712-11.252 4.136.408 7.793-2.606 8.199-6.729s-2.606-7.793-6.729-8.199c-15.115-1.479-28.621 9.596-30.11 24.709l-1.572 15.957c-1.489 15.113 9.596 28.621 24.709 30.11z"
            fill="#000000" opacity="1" data-original="#000000" class=""></path>
        <path
            d="M322.123 234.003c.92.091 1.838.136 2.751.136 6.348 0 12.449-2.174 17.421-6.254 5.687-4.667 9.217-11.269 9.938-18.591l1.179-11.968a7.5 7.5 0 1 0-14.928-1.47l-1.179 11.968c-.678 6.882-6.827 11.927-13.712 11.252-6.882-.678-11.93-6.829-11.252-13.712l1.572-15.957a12.462 12.462 0 0 1 4.526-8.466 12.435 12.435 0 0 1 9.186-2.786 7.5 7.5 0 1 0 1.47-14.928c-7.323-.722-14.485 1.452-20.172 6.119s-9.217 11.269-9.938 18.591l-1.572 15.957c-.721 7.321 1.452 14.485 6.119 20.172s11.269 9.216 18.591 9.937zM175.302 305.564c61.373 1.404 116.807 28.979 117.356 29.256a7.499 7.499 0 0 0 10.075-3.316 7.5 7.5 0 0 0-3.315-10.075c-2.375-1.199-58.913-29.378-123.773-30.862-4.126-.08-7.575 3.185-7.669 7.327a7.497 7.497 0 0 0 7.326 7.67zM187.142 133.564a7.47 7.47 0 0 0 4.669 1.635 7.5 7.5 0 0 0 4.69-13.357c-1.79-1.432-44.428-34.768-96.227-8.869a7.499 7.499 0 0 0-3.354 10.062 7.499 7.499 0 0 0 10.062 3.354c43.006-21.5 78.592 5.937 80.16 7.175zM391.58 126.228c-.812-4.062-4.765-6.693-8.825-5.884l-80.17 16.034a7.5 7.5 0 1 0 2.942 14.709l80.17-16.034a7.5 7.5 0 0 0 5.883-8.825z"
            fill="#000000" opacity="1" data-original="#000000" class=""></path>
    </g>
</svg>